<?xml version="1.0" standalone="no"?>
<!DOCTYPE svg PUBLIC "-//W3C//DTD SVG 20010904//EN"
 "http://www.w3.org/TR/2001/REC-SVG-20010904/DTD/svg10.dtd">
<svg version="1.0" xmlns="http://www.w3.org/2000/svg"
 width="32.000000pt" height="32.000000pt" viewBox="0 0 32.000000 32.000000"
 preserveAspectRatio="xMidYMid meet">

<g transform="translate(0.000000,32.000000) scale(0.100000,-0.100000)"
fill="#000000" stroke="none">
<path d="M12 308 c-17 -17 -17 -279 0 -296 17 -17 279 -17 296 0 17 17 17 279
0 296 -17 17 -279 17 -296 0z m85 -115 l32 -38 1 28 c0 15 -4 27 -10 27 -5 0
-10 5 -10 10 0 6 11 10 24 10 14 0 28 -4 31 -10 3 -5 1 -10 -4 -10 -7 0 -11
-24 -11 -60 0 -33 -4 -60 -8 -60 -4 0 -23 19 -41 43 l-33 42 5 -42 c5 -39 3
-43 -16 -43 -20 0 -22 5 -22 70 0 83 13 90 62 33z m174 -14 c5 -8 9 -24 9 -36
0 -12 3 -28 6 -36 4 -13 -5 -15 -56 -16 -58 0 -61 1 -54 22 9 27 9 37 -1 59
-4 11 -1 17 12 20 34 7 75 1 84 -13z"/>
<path d="M220 141 c0 -21 5 -31 16 -31 11 0 14 8 12 27 -4 39 -28 42 -28 4z"/>
</g>
</svg>
